<?xml version="1.0" encoding="utf-8"?>
<!-- Generator: Adobe Illustrator 27.5.0, SVG Export Plug-In . SVG Version: 6.00 Build 0)  -->
<svg version="1.1" id="Layer_2_00000084529288598075791670000003816763072591386030_"
	 xmlns="http://www.w3.org/2000/svg" xmlns:xlink="http://www.w3.org/1999/xlink" x="0px" y="0px" viewBox="0 0 23.8 23.7"
	 style="enable-background:new 0 0 23.8 23.7;" xml:space="preserve">
<style type="text/css">
	.st0{fill:#FFFFFF;}
</style>
<g id="Layer_1-2">
	<g id="icon-user">
		<path class="st0" d="M11.9,13.1C6,13.1,1.3,17.9,1.3,23.7h2c0-4.8,3.9-8.7,8.7-8.7s8.7,3.9,8.7,8.7h2
			C22.6,17.9,17.8,13.1,11.9,13.1L11.9,13.1z"/>
		<path class="st0" d="M11.9,0C8.5,0,5.8,2.7,5.8,6.1s2.8,6.1,6.1,6.1S18,9.5,18,6.1S15.3,0,11.9,0z M11.9,10.3
			c-2.3,0-4.2-1.9-4.2-4.2s1.9-4.2,4.2-4.2s4.2,1.9,4.2,4.2S14.2,10.3,11.9,10.3z"/>
	</g>
</g>
</svg>
